<?xml version="1.0" standalone="no"?>
<!DOCTYPE svg PUBLIC "-//W3C//DTD SVG 20010904//EN"
 "http://www.w3.org/TR/2001/REC-SVG-20010904/DTD/svg10.dtd">
<svg version="1.0" xmlns="http://www.w3.org/2000/svg"
 width="612.000000pt" height="408.000000pt" viewBox="0 0 612.000000 408.000000"
 preserveAspectRatio="xMidYMid meet">

<g transform="translate(0.000000,408.000000) scale(0.100000,-0.100000)"
fill="#000000" stroke="none">
<path d="M2883 3756 c4 -10 12 -50 19 -88 23 -142 -17 -268 -139 -433 -91
-125 -110 -155 -146 -235 -56 -123 -74 -237 -54 -345 l8 -40 -25 27 c-13 15
-34 53 -46 85 -19 49 -21 72 -17 142 l5 85 -19 -25 c-138 -174 -197 -417 -148
-606 24 -93 83 -216 133 -276 29 -36 41 -43 61 -39 23 4 32 27 26 65 0 4 4 7
10 7 6 0 8 11 5 28 -18 90 -18 97 6 132 13 19 24 46 25 60 1 14 16 38 34 54
25 22 29 30 18 37 -12 8 -11 11 4 20 9 5 17 19 17 30 0 10 4 27 10 37 5 9 14
30 20 45 6 17 14 25 21 21 17 -10 29 16 29 63 0 95 53 229 125 318 18 22 69
78 114 125 45 47 89 101 98 120 13 28 18 31 21 16 5 -22 -1 -61 -23 -146 -37
-144 -36 -236 1 -317 23 -50 63 -103 78 -103 6 0 4 5 -4 10 -16 10 -8 14 24
10 18 -2 46 -22 46 -34 0 -3 -8 -6 -17 -6 -21 0 -12 -9 15 -15 14 -2 19 1 16
10 -4 10 8 12 59 8 47 -4 73 -1 96 10 30 15 71 13 71 -4 0 -15 59 -69 76 -69
10 0 14 -3 11 -7 -4 -3 1 -18 10 -32 18 -28 27 -116 24 -254 -1 -64 -6 -88
-27 -130 -47 -91 -54 -108 -54 -128 0 -28 14 -23 46 15 81 94 125 174 160 287
23 77 25 95 21 209 -4 86 -12 144 -25 185 -19 57 -20 59 -27 30 -3 -16 -13
-48 -21 -70 -8 -23 -14 -50 -15 -60 0 -11 -16 -33 -36 -50 l-35 -29 5 39 c3
22 10 65 15 97 21 120 -34 284 -133 396 -26 28 -51 52 -56 52 -5 0 -9 -28 -9
-62 0 -35 -5 -81 -11 -103 -12 -42 -45 -95 -59 -95 -5 0 -18 26 -30 58 -20 53
-22 68 -15 207 5 119 3 164 -9 217 -39 167 -157 313 -359 443 -29 18 -30 18
-24 1z"/>
<path d="M2675 3369 c-180 -100 -405 -187 -579 -225 l-78 -16 5 -242 c4 -207
9 -257 30 -356 65 -302 156 -507 309 -697 l50 -61 43 30 44 31 -43 51 c-110
131 -201 305 -252 481 -48 168 -65 282 -71 476 l-6 197 33 7 c106 23 357 118
475 179 38 20 164 198 138 195 -5 0 -48 -23 -98 -50z"/>
<path d="M3345 3361 c4 -9 9 -38 12 -64 4 -34 12 -53 27 -62 69 -45 382 -165
496 -190 l33 -7 -6 -177 c-12 -394 -117 -719 -306 -950 -34 -41 -61 -77 -61
-80 0 -3 18 -16 41 -29 49 -28 48 -29 134 84 96 125 186 318 237 504 51 192
83 528 64 682 l-7 56 -47 11 c-26 6 -56 13 -67 15 -92 17 -327 107 -468 178
-60 31 -86 40 -82 29z"/>
<path d="M2964 2611 c-11 -18 -34 -36 -60 -46 -102 -39 -172 -123 -196 -237
-10 -48 -16 -59 -40 -69 -37 -15 -68 -55 -68 -86 0 -53 39 -97 127 -141 52
-27 66 -67 31 -94 -13 -10 -26 -18 -29 -18 -10 0 -31 -56 -27 -74 2 -12 -18
-25 -78 -50 -97 -40 -144 -66 -144 -81 0 -12 148 -128 222 -174 67 -42 177
-96 246 -121 63 -23 64 -23 120 -5 67 20 237 104 301 148 26 17 79 57 119 90
70 56 72 60 56 78 -16 18 -133 71 -186 84 -24 6 -28 12 -28 42 0 33 -22 64
-64 88 -14 9 -15 15 -5 43 6 17 17 32 23 32 7 0 40 18 73 39 47 30 64 48 73
76 16 50 -1 90 -51 115 -28 15 -39 28 -44 52 -26 126 -85 208 -183 254 -31 14
-67 39 -80 55 -33 41 -84 41 -108 0z m107 -83 l51 -32 -5 -61 c-3 -33 -10 -72
-16 -87 -10 -27 -13 -28 -81 -28 -71 0 -71 0 -84 33 -8 17 -16 56 -18 85 l-5
53 51 35 c28 19 52 34 53 34 1 0 25 -15 54 -32z m-187 -180 c3 -13 6 -26 6
-29 0 -4 -23 -9 -50 -13 -28 -4 -57 -9 -66 -13 -12 -4 -15 0 -12 17 2 18 15
28 53 41 64 23 62 23 69 -3z m356 -3 c24 -8 36 -19 38 -35 3 -19 0 -22 -20
-17 -12 3 -42 9 -65 13 -43 6 -49 16 -37 48 7 17 9 17 84 -9z m-82 -124 c70
-10 84 -29 78 -102 -10 -112 -80 -232 -152 -259 -71 -27 -153 -3 -208 62 -62
72 -99 246 -60 279 30 24 229 36 342 20z m-170 -500 c46 -19 81 -2 165 80 44
43 65 59 61 46 -17 -58 -43 -97 -102 -154 -61 -60 -64 -65 -74 -130 -11 -75
-27 -116 -28 -73 0 14 -6 53 -13 87 -12 55 -19 67 -65 108 -51 46 -90 101
-112 159 -9 24 1 18 62 -40 41 -38 88 -76 106 -83z"/>
<path d="M2505 1980 c3 -5 13 -10 21 -10 8 0 14 5 14 10 0 6 -9 10 -21 10 -11
0 -17 -4 -14 -10z"/>
<path d="M3450 1934 c0 -22 2 -25 15 -14 8 7 15 19 15 26 0 8 -7 14 -15 14
-10 0 -15 -10 -15 -26z"/>
<path d="M1443 1487 c-17 -28 -80 -65 -128 -75 -27 -6 -93 -13 -145 -16 -71
-5 -106 -12 -140 -29 -55 -28 -90 -84 -90 -144 l0 -42 37 22 c32 18 58 22 178
28 186 8 221 23 272 122 32 65 47 185 16 134z"/>
<path d="M1510 1300 c-5 -3 -10 -120 -11 -260 l-3 -255 62 -3 62 -3 0 260 0
259 -51 4 c-28 1 -55 1 -59 -2z"/>
<path d="M1774 1295 c-3 -6 -3 -123 -2 -260 l3 -250 58 -3 57 -3 0 68 c0 102
5 113 50 113 29 0 43 -6 58 -25 11 -13 21 -22 24 -20 3 3 5 -1 5 -8 0 -7 17
-38 38 -70 l38 -57 68 0 69 0 -65 94 -65 94 41 24 c50 28 79 80 79 143 0 71
-39 129 -105 156 -38 15 -346 18 -351 4z m311 -115 c31 -29 33 -72 5 -100 -17
-17 -33 -20 -109 -20 l-89 0 -1 67 c0 43 4 70 11 75 7 4 45 6 85 5 60 -2 76
-7 98 -27z"/>
<path d="M2403 1302 l-43 -3 0 -260 0 -259 213 0 212 0 0 53 0 52 -140 2 c-77
1 -146 2 -153 3 -9 0 -12 15 -10 56 l3 57 125 1 125 1 3 48 3 47 -130 0 -131
0 0 49 0 48 141 6 c77 3 142 7 143 9 2 1 6 22 9 46 l5 42 -121 0 c-67 1 -142
2 -167 3 -25 1 -64 1 -87 -1z"/>
<path d="M3008 1296 c-62 -22 -85 -43 -103 -90 -20 -53 -15 -101 16 -140 29
-36 70 -56 142 -67 118 -18 156 -30 163 -51 3 -12 -1 -27 -12 -39 -15 -17 -31
-19 -151 -19 -73 0 -133 -2 -133 -5 0 -2 -9 -27 -20 -55 l-20 -52 177 4 c198
3 227 11 263 71 28 45 27 135 -1 171 -29 37 -61 51 -164 70 -49 9 -100 19
-112 21 -33 7 -40 45 -13 67 18 15 41 18 127 18 57 0 113 5 125 11 18 10 48
65 48 89 0 16 -286 12 -332 -4z"/>
<path d="M3470 1045 l0 -265 210 0 210 0 0 55 0 55 -150 0 -150 0 0 55 0 55
124 0 c136 0 136 0 136 66 l0 34 -130 0 -130 0 0 50 0 50 145 0 145 0 0 55 0
55 -205 0 -205 0 0 -265z"/>
<path d="M3950 1305 c0 -4 16 -43 36 -88 20 -45 71 -161 113 -257 l77 -175 59
0 59 0 56 126 c30 69 63 143 72 165 9 21 35 81 57 133 23 52 41 96 41 98 0 2
-29 3 -65 3 -53 0 -67 -3 -72 -17 -3 -10 -25 -63 -48 -118 -23 -55 -54 -131
-70 -168 -16 -37 -31 -64 -35 -60 -4 4 -21 44 -38 88 -17 44 -49 123 -71 175
l-40 95 -65 3 c-36 2 -66 0 -66 -3z"/>
<path d="M4676 1288 c-9 -12 -16 -26 -16 -29 0 -4 -33 -81 -74 -171 -40 -90
-87 -196 -104 -235 l-31 -73 63 0 63 0 74 170 c41 93 77 170 80 170 5 0 105
-221 139 -307 12 -32 14 -33 76 -33 35 0 64 2 64 5 0 6 -182 419 -211 478 -22
45 -25 47 -65 47 -33 0 -47 -5 -58 -22z"/>
<path d="M1014 1139 c-63 -18 -69 -35 -72 -205 l-3 -154 75 0 76 0 0 120 0
120 81 0 c103 0 145 18 170 74 10 22 15 44 13 48 -7 11 -301 8 -340 -3z"/>
<path d="M5248 888 c9 -9 15 -9 24 0 9 9 7 12 -12 12 -19 0 -21 -3 -12 -12z"/>
<path d="M5420 815 c0 -15 4 -24 10 -20 6 3 10 12 10 20 0 8 -4 17 -10 20 -6
4 -10 -5 -10 -20z"/>
<path d="M5244 788 c10 -6 22 -6 26 -2 5 5 -3 10 -18 11 -22 1 -24 0 -8 -9z"/>
<path d="M5350 789 c0 -5 5 -7 10 -4 6 3 10 8 10 11 0 2 -4 4 -10 4 -5 0 -10
-5 -10 -11z"/>
<path d="M5498 783 c7 -3 16 -2 19 1 4 3 -2 6 -13 5 -11 0 -14 -3 -6 -6z"/>
<path d="M1410 580 c0 -27 5 -50 10 -50 6 0 10 9 10 20 0 14 7 20 23 21 l22 0
-22 9 c-31 12 -29 30 2 30 14 0 25 5 25 10 0 6 -16 10 -35 10 l-35 0 0 -50z"/>
<path d="M1520 580 c0 -27 5 -50 10 -50 6 0 10 23 10 50 0 28 -4 50 -10 50 -5
0 -10 -22 -10 -50z"/>
<path d="M1590 580 c0 -27 5 -50 10 -50 6 0 10 10 10 23 l1 22 18 -22 c24 -29
34 -29 26 -3 -4 12 -2 27 5 34 15 19 -13 46 -46 46 -22 0 -24 -4 -24 -50z m50
15 c0 -8 -7 -15 -15 -15 -8 0 -15 7 -15 15 0 8 7 15 15 15 8 0 15 -7 15 -15z"/>
<path d="M1710 580 c0 -50 0 -50 33 -49 29 1 29 2 8 8 -31 8 -40 31 -12 31 11
0 23 5 26 10 4 6 -5 10 -19 10 -14 0 -26 5 -26 10 0 6 11 10 25 10 14 0 25 5
25 10 0 6 -13 10 -30 10 -29 0 -30 -1 -30 -50z"/>
<path d="M1890 615 c-10 -12 -10 -18 0 -30 7 -8 19 -15 27 -15 8 0 13 -6 10
-12 -2 -7 -14 -12 -26 -11 -11 2 -21 -2 -21 -7 0 -18 57 -11 64 7 7 16 -16 43
-36 43 -4 0 -8 5 -8 10 0 6 9 10 21 10 11 0 17 5 14 10 -9 15 -31 12 -45 -5z"/>
<path d="M1999 585 c-11 -26 -17 -50 -13 -53 3 -4 9 -1 11 6 5 14 53 17 53 2
0 -5 4 -10 9 -10 11 0 -16 87 -30 96 -5 3 -19 -15 -30 -41z m31 -5 c0 -5 -5
-10 -11 -10 -5 0 -7 5 -4 10 3 6 8 10 11 10 2 0 4 -4 4 -10z"/>
<path d="M2110 580 c0 -27 5 -50 10 -50 6 0 10 9 10 19 0 11 8 22 18 24 16 4
16 5 0 6 -25 1 -23 31 2 31 11 0 20 5 20 10 0 6 -13 10 -30 10 -29 0 -30 -1
-30 -50z"/>
<path d="M2210 580 l0 -50 38 1 c30 2 32 3 10 6 -32 5 -38 33 -8 33 11 0 20 5
20 10 0 6 -9 10 -20 10 -11 0 -20 5 -20 10 0 6 11 10 25 10 14 0 25 5 25 10 0
6 -16 10 -35 10 l-35 0 0 -50z"/>
<path d="M2310 620 c0 -5 7 -10 15 -10 11 0 15 -11 15 -40 0 -22 5 -40 10 -40
6 0 10 16 10 36 0 23 6 42 18 50 15 12 12 13 -25 14 -24 0 -43 -4 -43 -10z"/>
<path d="M2420 622 c0 -5 7 -17 15 -28 8 -10 15 -29 15 -41 0 -13 5 -23 10
-23 6 0 10 9 10 20 0 12 7 34 15 50 9 17 11 30 6 30 -5 0 -13 -9 -16 -20 -3
-11 -10 -20 -15 -20 -5 0 -12 9 -15 20 -6 19 -25 28 -25 12z"/>
<path d="M2750 615 c-10 -12 -10 -18 0 -30 7 -8 19 -15 26 -15 8 0 14 -7 14
-15 0 -12 -7 -14 -27 -9 -22 5 -25 4 -17 -6 16 -17 58 -8 62 12 2 11 -6 22
-22 29 -34 16 -33 29 2 29 21 0 24 2 12 10 -21 14 -36 12 -50 -5z"/>
<path d="M2850 580 l0 -50 33 1 c23 1 26 3 10 6 -13 2 -23 10 -23 18 0 7 10
16 23 20 l22 8 -22 4 c-28 5 -30 23 -4 23 11 0 23 5 26 10 4 6 -8 10 -29 10
l-36 0 0 -50z"/>
<path d="M2960 580 c0 -27 5 -50 10 -50 6 0 10 10 10 23 l1 22 18 -22 c22 -27
36 -30 23 -6 -7 11 -6 23 1 34 14 23 -7 49 -39 49 -22 0 -24 -4 -24 -50z m50
15 c0 -8 -7 -15 -15 -15 -8 0 -15 7 -15 15 0 8 7 15 15 15 8 0 15 -7 15 -15z"/>
<path d="M3074 605 c11 -44 25 -75 35 -75 9 0 41 71 41 91 0 21 -20 -3 -29
-34 l-9 -32 -16 38 c-18 42 -31 49 -22 12z"/>
<path d="M3199 628 c-5 -18 -3 -81 3 -91 4 -7 8 11 8 41 0 28 -2 52 -5 52 -3
0 -5 -1 -6 -2z"/>
<path d="M3265 610 c-28 -31 -10 -74 33 -78 18 -2 32 1 32 7 0 6 -9 10 -21 8
-12 -1 -26 5 -32 14 -15 24 -1 49 28 49 15 0 24 4 20 10 -10 17 -41 11 -60
-10z"/>
<path d="M3370 580 l0 -50 33 1 c23 1 26 3 10 6 -13 2 -23 10 -23 18 0 7 10
16 23 20 l22 8 -22 4 c-28 5 -30 23 -3 23 11 0 20 5 20 10 0 6 -13 10 -30 10
-29 0 -30 -1 -30 -50z"/>
<path d="M3473 613 c-4 -11 3 -24 21 -38 28 -22 23 -41 -8 -29 -9 3 -16 1 -16
-5 0 -18 57 -13 64 6 7 16 -16 43 -36 43 -4 0 -8 5 -8 10 0 6 9 10 21 10 11 0
17 5 14 10 -10 16 -45 12 -52 -7z"/>
<path d="M3800 615 c-10 -12 -10 -18 0 -30 7 -8 19 -15 27 -15 8 0 13 -6 10
-12 -2 -7 -14 -12 -26 -11 -13 2 -20 -1 -16 -7 10 -16 52 -11 59 7 7 16 -16
43 -36 43 -4 0 -8 5 -8 10 0 6 9 10 21 10 11 0 17 5 14 10 -9 15 -31 12 -45
-5z"/>
<path d="M3906 607 c-19 -27 -11 -64 15 -72 51 -16 88 37 54 75 -24 26 -51 25
-69 -3z m62 -23 c4 -29 -23 -51 -43 -34 -16 13 -20 42 -8 54 14 14 48 1 51
-20z"/>
<path d="M4030 580 l0 -50 33 1 c23 1 26 3 10 6 -20 4 -23 11 -23 49 0 24 -4
44 -10 44 -5 0 -10 -22 -10 -50z"/>
<path d="M4134 585 c1 -44 4 -50 24 -53 13 -2 30 2 38 8 16 14 18 58 4 80 -7
11 -10 4 -10 -27 0 -23 -5 -45 -10 -48 -18 -11 -39 15 -43 53 -3 25 -4 21 -3
-13z"/>
<path d="M4240 620 c0 -5 7 -10 15 -10 11 0 15 -11 15 -40 0 -22 5 -40 11 -40
6 0 9 15 8 35 -3 25 2 39 16 49 19 14 17 15 -22 16 -24 0 -43 -4 -43 -10z"/>
<path d="M4350 580 c0 -27 5 -50 10 -50 6 0 10 23 10 50 0 28 -4 50 -10 50 -5
0 -10 -22 -10 -50z"/>
<path d="M4432 618 c-7 -7 -12 -27 -12 -45 0 -27 5 -34 27 -39 33 -9 57 6 61
38 5 44 -46 76 -76 46z m56 -39 c2 -18 -3 -29 -14 -33 -25 -9 -48 16 -39 43
10 32 49 24 53 -10z"/>
<path d="M4550 578 c0 -38 3 -49 10 -38 5 8 10 24 10 35 0 16 4 13 20 -12 28
-46 40 -41 40 17 0 55 -17 69 -22 18 l-3 -33 -20 33 c-10 17 -23 32 -27 32 -4
0 -8 -24 -8 -52z"/>
<path d="M4677 623 c-16 -15 -6 -44 19 -53 29 -11 23 -34 -7 -25 -11 4 -19 2
-19 -5 0 -6 12 -10 28 -8 34 4 44 43 13 53 -27 8 -27 25 0 25 11 0 17 5 14 10
-7 11 -38 13 -48 3z"/>
<path d="M940 580 c0 -6 68 -10 185 -10 117 0 185 4 185 10 0 6 -68 10 -185
10 -117 0 -185 -4 -185 -10z"/>
<path d="M4820 580 c0 -6 63 -10 170 -10 107 0 170 4 170 10 0 6 -63 10 -170
10 -107 0 -170 -4 -170 -10z"/>
</g>
</svg>
